<svg xmlns="http://www.w3.org/2000/svg" viewBox="0 0 229.11 122.3"><defs><style>.cls-1{fill:#fff;}</style></defs><title>logo</title><g id="Layer_2" data-name="Layer 2"><g id="Layer_1-2" data-name="Layer 1"><path class="cls-1" d="M70.58,98.93A17.24,17.24,0,0,1,59.34,94a11.86,11.86,0,0,1-4-9v-.09c.1-.83.23-2.11.39-3.83.06-.81.1-1.87.1-3.14,0-1.09.09-2.68.3-4.84s.29-3.62.29-4.63c0-.73,0-1.28,0-1.69L54.64,67,54,61.42l15.8-2.33L68.1,84.66C68,86,69.45,87.38,70.7,88.34c1.76,1.34,3.44,3,5,3.16,1.14-.78,2.16-3,3.06-4.76a12.23,12.23,0,0,0,1.4-5l.37-21.06,12.75-1.5-.42,25.56a12.6,12.6,0,0,0,.75,4.68l0,.06,0,.06c0,.06,0,.12.07.19l3-1,.93,5.49L87.26,98.71l-.74-.54a17.81,17.81,0,0,1-4.32-4.3,35.28,35.28,0,0,1-11.07,5l-.27.07Z"/><path class="cls-1" d="M99.62,71.54a35.92,35.92,0,0,0-.29-6.08,4.58,4.58,0,0,1-2.21-3.23l-.25-1.29,15.64-2.34V96.45l-13.05,2.6Z"/><path class="cls-1" d="M117.77,62.46a24.73,24.73,0,0,0-.92-5.88l-.18-.08a4.12,4.12,0,0,1-2.51-3.45l-.1-1.07L127.9,48.5l.42,1.26a47.24,47.24,0,0,1,2.83,14.54v4.89l-.33,21.59.78.1,1,.07.47,0,.29-.11,5.28-3,3.7,4-.67.81a17.63,17.63,0,0,1-4.12,4A8.8,8.8,0,0,1,132.86,98h-.11l-3.21-.22L126,97.58l-2.14.1-5.78.44Z"/><path class="cls-1" d="M159.24,99c-6.35-.55-11.34-2.75-14.81-6.51a17.19,17.19,0,0,1-4.69-12.08,15.71,15.71,0,0,1,4.51-11.24,31.87,31.87,0,0,1,8.93-6.07c-5.25-3.94-6-5.5-6-6.58s.79-2.43,2.5-4l6-5.56,4.53,3.79-1.06,1.36L173.1,63c5.22,4.12,7.87,9.32,7.87,15.44A17.72,17.72,0,0,1,177,89.73a20.61,20.61,0,0,1-7.61,5.8,98.38,98.38,0,0,1-9.53,3.36l-.32.1Zm-1.83-32.89c-2.24,1.31-2.84,3.67-3.75,5.28a13.83,13.83,0,0,0,2.7,16C159,89.9,161.78,92.94,165,93c.7-.12,1.56-2.73,2.37-4.14A15.14,15.14,0,0,0,169,81.37C169,77.35,164.45,71.63,157.41,66.07Z"/><path class="cls-1" d="M26.64,116.17l1.08-.42c3.22-1.26,5-3.23,5.49-6,.07-.4.17-2.19.26-8.25-4.45,2.92-8.22,4.34-11.5,4.34-5.47,0-10.65-3-15.39-8.93C2.21,91.44,0,84,0,74.87c0-9,2.28-16.33,6.77-21.79,3.66-4.44,10.12-9,19.22-13.46l.25-.12.28,0c6.78.59,13.27,4.15,19.28,10.58l.49.52L38.36,65.69,37.47,64c-4.21-7.81-8.09-13.52-13.5-15a14.1,14.1,0,0,0-8.64,8.42C14.52,60,14.1,64.06,14.1,69.68c0,7.56,1.66,14.11,4.93,19.46,3,4.92,6.17,8.43,9.46,8.47.28-.13,1.5-2,5.2-7.82l.24-10.05a8.26,8.26,0,0,0-.12-2l-2.35.36-1.4-6.56L48.85,69l-.58,27.27c-.12,6.43-1.45,11.65-4,15.5-2.67,4-7.17,7.43-13.39,10.15l-.83.36Z"/><path class="cls-1" d="M203.35,105.34q-9.4,0-15.09-3.61a11.51,11.51,0,0,1-4.82-5.38,20.09,20.09,0,0,1-.79-6.54V86.88L200,85.59l-1.1,5.14c-.27,3.3.37,5.74,1.89,7.33A5.89,5.89,0,0,0,205,100a7.22,7.22,0,0,0,6.48-3.43,11.47,11.47,0,0,0,1.66-6.17q0-4.47-11.46-9.6L197.9,79q-14.78-7.21-14.78-14.18,0-14.55,17.47-21.15a45.75,45.75,0,0,1,7.74-2.08,15.15,15.15,0,0,1,8,2.69A81.51,81.51,0,0,1,227.77,52l-9,14.18-4.19-2.93.24-2.2V60.1q0-2.57-5.77-6.17t-9.4-3.61a7.41,7.41,0,0,0-3.4,1.16,15.09,15.09,0,0,0-1.74,5.75q.08,3.6,10.12,7.82,11.53,4.83,15.8,7.58,8.69,5.5,8.69,11.74a18.77,18.77,0,0,1-7.11,15Q214.89,105.34,203.35,105.34Z"/><path class="cls-1" d="M73.31,30.67c-.17.33-2,.49-5.63.49-.26,0-.57-.62-.92-1.85s-.9-1.84-1.61-1.84L56,27.66a2.69,2.69,0,0,0-2.28.88,3.64,3.64,0,0,0-.63,1.69c-.1.62-.24.93-.44.93H49.14L58.21,6.79c-.16-1.26-.24-2-.24-2.18q0-1.07,1.41-1c2-.26,4.11-1.45,6.21-3.59a6.21,6.21,0,0,1,1.09,1.24,2.59,2.59,0,0,1,.61,1.24c0,.51-.36,1-1.07,1.43s-1.07.88-1.07,1.33c0,.1.14.93.42,2.5a24.48,24.48,0,0,1,.41,3ZM65,23.83,60.6,10,55.41,23.64a2.5,2.5,0,0,0,1.5.67l4.07.2A24.6,24.6,0,0,0,65,23.83Z"/><path class="cls-1" d="M97.43,9.17c-.41,1.53-.64,2.42-.67,2.68L96.55,16l.68,14.43c-.61,2.24-2.3,4.33-5,6.27a24,24,0,0,1-7.14,3.5A22.77,22.77,0,0,1,82,41.1a22.58,22.58,0,0,1-2.7.1,5.42,5.42,0,0,1-2.88-1.31c-1.18-.87-1.77-1.65-1.77-2.33a1.32,1.32,0,0,1,.07-.34,3.13,3.13,0,0,0,.07-.82L80,30.72a17.08,17.08,0,0,1-3.1-3.4c-1.42-1.91-2.17-3.4-2.23-4.46a21.6,21.6,0,0,1-.15-2.72A16.46,16.46,0,0,1,75,17.67a16.61,16.61,0,0,1,1.45-3.35,10,10,0,0,1,2-3,19,19,0,0,1,3.69-2.43,27.19,27.19,0,0,1,3.45-1,22.62,22.62,0,0,1,2.52.66,13.69,13.69,0,0,0,2.62.6,16.86,16.86,0,0,0,3.25-.41,27.58,27.58,0,0,1,3.25-.56A1.6,1.6,0,0,1,97.43,9.17ZM91.55,23.49l-.33-9.71a2.34,2.34,0,0,0-1-1.87A2.87,2.87,0,0,0,88.43,11a20.8,20.8,0,0,0-2.94-.58,17.06,17.06,0,0,0-2.55.48,3.49,3.49,0,0,0-1.88,1.7,6.35,6.35,0,0,0-.91,2.09c-.1.55-.2,1.11-.29,1.69,0,.1,0,1.35,0,3.74a9.54,9.54,0,0,0,1.54,4.27q1.79,3.11,3.51,3.11a10.34,10.34,0,0,0,5-1.51A3.8,3.8,0,0,0,91,24.82,1.86,1.86,0,0,0,91.55,23.49Zm0,8-.14-3.64L86,30.09q-4.45,2.32-5.17,4.22a3.91,3.91,0,0,0-.24,1.31q0,2.67,2.61,2.67a9.5,9.5,0,0,0,5.17-1.84Q91.55,34.26,91.55,31.45Z"/><path class="cls-1" d="M121.84,19.61c.16.45-.12,1.08-.83,1.89s-1.32,1.21-1.84,1.21H105a1.06,1.06,0,0,0-.44.78c0,1,.76,2.22,2.28,3.54a6.71,6.71,0,0,0,3.64,2c2.07.1,3,.15,2.77.15.09,0,.84-.17,2.23-.49l4.46-2.57c.65.06,1,.39,1,1s-1.21,1.75-3.64,3.2c-2.23,1.3-3.57,1.94-4,1.94l-5.88-.14a9.7,9.7,0,0,1-5.14-2.52,8.55,8.55,0,0,1-3.15-5.28q-.3-1.7-.54-3.39c0-.13.07-.79.2-2q0-3.59,4.07-7.17t7.62-3.54h2.77a6.13,6.13,0,0,1,3.49,1.31A4.59,4.59,0,0,1,119,13.33a4.51,4.51,0,0,1-1,2.94,9.94,9.94,0,0,1-2.11,1.89,8.94,8.94,0,0,0-2,1.74l5.24.39a4.31,4.31,0,0,0,1-.39,3.34,3.34,0,0,1,1.31-.39A.92.92,0,0,1,121.84,19.61ZM110,10.24c-.75-.1-1.89.59-3.43,2.06s-2.3,2.71-2.3,3.71c0,.13,0,.49-.1,1.07s-.1,1-.1,1.36c0,1.17.31,1.83.93,2l2.91-.63c3.3-.87,5.21-2.3,5.72-4.27a10.28,10.28,0,0,0,.05-1.07A3.81,3.81,0,0,0,110,10.24Z"/><path class="cls-1" d="M160.52,21.55a11.35,11.35,0,0,1-3.84,6.53,12.49,12.49,0,0,1-7.08,3.56l-3,.39q-6.22-1.07-8.84-4.32a11.92,11.92,0,0,1-2.81-6.16,11.43,11.43,0,0,1-.1-2.38c.29-1.23.44-1.89.44-2a10,10,0,0,1,3.83-6.36,13.87,13.87,0,0,1,5.78-3.1l2.86-.3a13.43,13.43,0,0,1,4.56.49l2,.92a8.48,8.48,0,0,1,2.09,1.46,20.86,20.86,0,0,1,2.38,2.91,8.09,8.09,0,0,1,1.65,3.35,13.73,13.73,0,0,0,.24,1.6,2.63,2.63,0,0,1,.14.73Q160.85,19.21,160.52,21.55Zm-5-1.46c-.85-3.69-2-6.16-3.5-7.42-.42-.39-.84-.76-1.26-1.12a7,7,0,0,0-1.94-1,11.9,11.9,0,0,0-3.59-.39,5.32,5.32,0,0,0-3.11,1.58c-1.23,1-1.84,2-1.84,2.89v5.14c0,1.94,1,4,3.08,6s4,3.13,5.75,3.13a4.61,4.61,0,0,0,1.09-.17,5.93,5.93,0,0,1,1.34-.17A8.4,8.4,0,0,0,154,26.4a5.15,5.15,0,0,0,1.31-2.57Z"/><path class="cls-1" d="M185.17,9.75a2.27,2.27,0,0,1-1.09.81,3.77,3.77,0,0,1-1.38.41l-1,.1a4.11,4.11,0,0,1-1.12-.05,1.17,1.17,0,0,1-.82-.59c-.22-.51-.58-1.21-1.06-2.08A3,3,0,0,0,177,7a9.66,9.66,0,0,0-2.18-.1q-1.11,0-1.83,1.5c-.3.78-.57,1.54-.83,2.29L171.63,22a11.07,11.07,0,0,1,.14,1.51v.63c0,.13.16.37.49.73h9.42l1.94-1.17c.51.23.77.45.77.68A3.59,3.59,0,0,1,183,26.76c-.94.89-1.58,1.34-1.94,1.34l-8.25-.49a.83.83,0,0,0-.53.25.94.94,0,0,0-.34,1l.19,9.9c-.06,1.45-.3,2.18-.73,2.18h-4.17a1,1,0,0,1-.92-.72,33,33,0,0,1,.15-3.37V28.44c.19-.2.09-.31-.3-.34a11.06,11.06,0,0,0-1.45,0h-1.75a2.56,2.56,0,0,1-1.36-.53,2.86,2.86,0,0,1,1.31-2.48,3,3,0,0,1,1.26-.39,1.41,1.41,0,0,1,.59.17,1.17,1.17,0,0,0,.53.17q.39,0,1.17-.78V15.09a11.74,11.74,0,0,0-.88-3.2,8.55,8.55,0,0,0-1.12-1.84,2.25,2.25,0,0,1-.53-1.36,7.13,7.13,0,0,1,2.14-.1l2.13.15,5.73-3.94h5a3.32,3.32,0,0,1,2,.68q.24.2,1.5,1.41C183.11,7.54,184,8.49,185.17,9.75Z"/></g></g></svg>